<svg xmlns="http://www.w3.org/2000/svg" width="72" height="74" fill="none" viewBox="0 0 72 74"><path fill="#000" d="M0.504 36.672C0.504 29.504 1.95467 23.232 4.856 17.856C7.75733 12.3947 11.7253 8.17066 16.76 5.184C21.88 2.19733 27.5547 0.703995 33.784 0.703995C39.928 0.703995 45.2613 2.02666 49.784 4.672C54.3067 7.31733 57.6773 10.6453 59.896 14.656V1.856H71.672V72H59.896V58.944C57.592 63.04 54.136 66.4533 49.528 69.184C45.0053 71.8293 39.7147 73.152 33.656 73.152C27.4267 73.152 21.7947 71.616 16.76 68.544C11.7253 65.472 7.75733 61.1627 4.856 55.616C1.95467 50.0693 0.504 43.7547 0.504 36.672ZM59.896 36.8C59.896 31.5093 58.8293 26.9013 56.696 22.976C54.5627 19.0507 51.6613 16.064 47.992 14.016C44.408 11.8827 40.44 10.816 36.088 10.816C31.736 10.816 27.768 11.84 24.184 13.888C20.6 15.936 17.7413 18.9227 15.608 22.848C13.4747 26.7733 12.408 31.3813 12.408 36.672C12.408 42.048 13.4747 46.7413 15.608 50.752C17.7413 54.6773 20.6 57.7067 24.184 59.84C27.768 61.888 31.736 62.912 36.088 62.912C40.44 62.912 44.408 61.888 47.992 59.84C51.6613 57.7067 54.5627 54.6773 56.696 50.752C58.8293 46.7413 59.896 42.0907 59.896 36.8Z"/></svg>